<mxfile host="Electron" agent="Mozilla/5.0 (Windows NT 10.0; Win64; x64) AppleWebKit/537.36 (KHTML, like Gecko) draw.io/28.0.6 Chrome/138.0.7204.100 Electron/37.2.3 Safari/537.36" version="28.0.6">
  <diagram name="Page-1" id="S1FUTQUYGq-v-Z-Q9evB">
    <mxGraphModel dx="2381" dy="922" grid="1" gridSize="10" guides="1" tooltips="1" connect="1" arrows="1" fold="1" page="1" pageScale="1" pageWidth="827" pageHeight="1169" math="0" shadow="0">
      <root>
        <mxCell id="0" />
        <mxCell id="1" parent="0" />
        <mxCell id="CmxRopXf3G86RnJkhXXH-2" value="container" style="shape=cylinder3;whiteSpace=wrap;html=1;boundedLbl=1;backgroundOutline=1;size=6.206904970366395;" parent="1" vertex="1">
          <mxGeometry x="-160" y="280" width="80" height="40" as="geometry" />
        </mxCell>
        <mxCell id="CmxRopXf3G86RnJkhXXH-3" value="machine / process" style="shape=step;perimeter=stepPerimeter;whiteSpace=wrap;html=1;fixedSize=1;size=10;" parent="1" vertex="1">
          <mxGeometry x="-40" y="280" width="80" height="40" as="geometry" />
        </mxCell>
        <mxCell id="CmxRopXf3G86RnJkhXXH-4" value="floating resource" style="rounded=1;whiteSpace=wrap;html=1;" parent="1" vertex="1">
          <mxGeometry x="80" y="280" width="80" height="40" as="geometry" />
        </mxCell>
        <mxCell id="CmxRopXf3G86RnJkhXXH-24" value="4h" style="edgeStyle=none;curved=1;rounded=0;orthogonalLoop=1;jettySize=auto;html=1;fontSize=12;startSize=8;endSize=8;" parent="1" source="CmxRopXf3G86RnJkhXXH-5" target="CmxRopXf3G86RnJkhXXH-13" edge="1">
          <mxGeometry relative="1" as="geometry" />
        </mxCell>
        <mxCell id="CmxRopXf3G86RnJkhXXH-39" value="2h" style="edgeStyle=none;curved=1;rounded=0;orthogonalLoop=1;jettySize=auto;html=1;fontSize=12;startSize=8;endSize=8;" parent="1" source="CmxRopXf3G86RnJkhXXH-5" target="CmxRopXf3G86RnJkhXXH-15" edge="1">
          <mxGeometry relative="1" as="geometry" />
        </mxCell>
        <mxCell id="iWIDf0FiWBgadMUSRAMe-8" value="2h" style="edgeStyle=none;curved=1;rounded=0;orthogonalLoop=1;jettySize=auto;html=1;fontSize=12;startSize=8;endSize=8;" parent="1" source="CmxRopXf3G86RnJkhXXH-5" target="CmxRopXf3G86RnJkhXXH-18" edge="1">
          <mxGeometry relative="1" as="geometry" />
        </mxCell>
        <mxCell id="Fb7SYodg1rfcOdGR5ccG-2" value="1h" style="edgeStyle=none;curved=1;rounded=0;orthogonalLoop=1;jettySize=auto;html=1;fontSize=12;startSize=8;endSize=8;" parent="1" source="CmxRopXf3G86RnJkhXXH-5" target="Fb7SYodg1rfcOdGR5ccG-1" edge="1">
          <mxGeometry relative="1" as="geometry" />
        </mxCell>
        <mxCell id="CmxRopXf3G86RnJkhXXH-5" value="water" style="shape=cylinder3;whiteSpace=wrap;html=1;boundedLbl=1;backgroundOutline=1;size=6.206904970366395;" parent="1" vertex="1">
          <mxGeometry x="80" y="600" width="80" height="40" as="geometry" />
        </mxCell>
        <mxCell id="CmxRopXf3G86RnJkhXXH-57" value="1o" style="edgeStyle=none;curved=1;rounded=0;orthogonalLoop=1;jettySize=auto;html=1;fontSize=12;startSize=8;endSize=8;" parent="1" source="CmxRopXf3G86RnJkhXXH-7" target="CmxRopXf3G86RnJkhXXH-53" edge="1">
          <mxGeometry x="0.3846" y="-3" relative="1" as="geometry">
            <mxPoint as="offset" />
          </mxGeometry>
        </mxCell>
        <mxCell id="Fb7SYodg1rfcOdGR5ccG-17" value="2o" style="edgeStyle=none;curved=1;rounded=0;orthogonalLoop=1;jettySize=auto;html=1;fontSize=12;startSize=8;endSize=8;" parent="1" source="CmxRopXf3G86RnJkhXXH-7" target="CmxRopXf3G86RnJkhXXH-18" edge="1">
          <mxGeometry relative="1" as="geometry">
            <Array as="points">
              <mxPoint x="280" y="580" />
            </Array>
          </mxGeometry>
        </mxCell>
        <mxCell id="Fb7SYodg1rfcOdGR5ccG-26" value="32o" style="edgeStyle=none;curved=1;rounded=0;orthogonalLoop=1;jettySize=auto;html=1;fontSize=12;startSize=8;endSize=8;" parent="1" source="CmxRopXf3G86RnJkhXXH-7" target="Fb7SYodg1rfcOdGR5ccG-24" edge="1">
          <mxGeometry x="0.4118" relative="1" as="geometry">
            <mxPoint as="offset" />
          </mxGeometry>
        </mxCell>
        <mxCell id="CmxRopXf3G86RnJkhXXH-7" value="oxygen" style="rounded=1;whiteSpace=wrap;html=1;" parent="1" vertex="1">
          <mxGeometry x="320" y="520" width="80" height="40" as="geometry" />
        </mxCell>
        <mxCell id="CmxRopXf3G86RnJkhXXH-29" value="1f" style="edgeStyle=none;curved=1;rounded=0;orthogonalLoop=1;jettySize=auto;html=1;fontSize=12;startSize=8;endSize=8;" parent="1" source="Fb7SYodg1rfcOdGR5ccG-31" target="CmxRopXf3G86RnJkhXXH-13" edge="1">
          <mxGeometry x="-0.6154" y="-3" relative="1" as="geometry">
            <mxPoint x="-90.00000000000023" y="480" as="sourcePoint" />
            <mxPoint as="offset" />
          </mxGeometry>
        </mxCell>
        <mxCell id="CmxRopXf3G86RnJkhXXH-27" value="1f4&lt;span style=&quot;background-color: light-dark(#ffffff, var(--ge-dark-color, #121212)); color: light-dark(rgb(0, 0, 0), rgb(255, 255, 255));&quot;&gt;h&lt;/span&gt;" style="edgeStyle=none;curved=1;rounded=0;orthogonalLoop=1;jettySize=auto;html=1;fontSize=12;startSize=8;endSize=8;" parent="1" source="Fb7SYodg1rfcOdGR5ccG-6" target="CmxRopXf3G86RnJkhXXH-12" edge="1">
          <mxGeometry x="-0.6154" y="3" relative="1" as="geometry">
            <mxPoint as="offset" />
            <mxPoint x="-90" y="520" as="sourcePoint" />
          </mxGeometry>
        </mxCell>
        <mxCell id="CmxRopXf3G86RnJkhXXH-28" value="1f" style="edgeStyle=none;curved=1;rounded=0;orthogonalLoop=1;jettySize=auto;html=1;fontSize=12;startSize=8;endSize=8;" parent="1" source="CmxRopXf3G86RnJkhXXH-12" target="Fb7SYodg1rfcOdGR5ccG-31" edge="1">
          <mxGeometry relative="1" as="geometry">
            <mxPoint x="-80.00000000000023" y="460" as="targetPoint" />
          </mxGeometry>
        </mxCell>
        <mxCell id="CmxRopXf3G86RnJkhXXH-31" value="4h" style="edgeStyle=none;curved=1;rounded=0;orthogonalLoop=1;jettySize=auto;html=1;fontSize=12;startSize=8;endSize=8;" parent="1" source="CmxRopXf3G86RnJkhXXH-12" target="CmxRopXf3G86RnJkhXXH-25" edge="1">
          <mxGeometry relative="1" as="geometry" />
        </mxCell>
        <mxCell id="CmxRopXf3G86RnJkhXXH-12" value="engine" style="shape=step;perimeter=stepPerimeter;whiteSpace=wrap;html=1;fixedSize=1;size=10;" parent="1" vertex="1">
          <mxGeometry x="-40" y="440" width="80" height="40" as="geometry" />
        </mxCell>
        <mxCell id="CmxRopXf3G86RnJkhXXH-26" value="1f4h" style="edgeStyle=none;curved=1;rounded=0;orthogonalLoop=1;jettySize=auto;html=1;fontSize=12;startSize=8;endSize=8;" parent="1" source="CmxRopXf3G86RnJkhXXH-13" target="Fb7SYodg1rfcOdGR5ccG-6" edge="1">
          <mxGeometry relative="1" as="geometry">
            <mxPoint x="-80" y="540" as="targetPoint" />
          </mxGeometry>
        </mxCell>
        <mxCell id="CmxRopXf3G86RnJkhXXH-13" value="cooler" style="shape=step;perimeter=stepPerimeter;whiteSpace=wrap;html=1;fixedSize=1;size=10;" parent="1" vertex="1">
          <mxGeometry x="-40" y="520" width="80" height="40" as="geometry" />
        </mxCell>
        <mxCell id="CmxRopXf3G86RnJkhXXH-22" value="2c2h" style="edgeStyle=none;curved=1;rounded=0;orthogonalLoop=1;jettySize=auto;html=1;fontSize=12;startSize=8;endSize=8;" parent="1" source="CmxRopXf3G86RnJkhXXH-15" target="Fb7SYodg1rfcOdGR5ccG-15" edge="1">
          <mxGeometry relative="1" as="geometry">
            <mxPoint x="433.3333333333335" y="680" as="sourcePoint" />
            <mxPoint x="360" y="680" as="targetPoint" />
          </mxGeometry>
        </mxCell>
        <mxCell id="CmxRopXf3G86RnJkhXXH-35" value="2o" style="edgeStyle=none;curved=1;rounded=0;orthogonalLoop=1;jettySize=auto;html=1;fontSize=12;startSize=8;endSize=8;" parent="1" source="CmxRopXf3G86RnJkhXXH-15" target="CmxRopXf3G86RnJkhXXH-7" edge="1">
          <mxGeometry relative="1" as="geometry" />
        </mxCell>
        <mxCell id="CmxRopXf3G86RnJkhXXH-15" value="plants" style="shape=step;perimeter=stepPerimeter;whiteSpace=wrap;html=1;fixedSize=1;size=10;" parent="1" vertex="1">
          <mxGeometry x="320" y="600" width="80" height="40" as="geometry" />
        </mxCell>
        <mxCell id="CmxRopXf3G86RnJkhXXH-20" value="2c2h" style="edgeStyle=none;curved=1;rounded=0;orthogonalLoop=1;jettySize=auto;html=1;fontSize=12;startSize=8;endSize=8;" parent="1" source="Fb7SYodg1rfcOdGR5ccG-15" target="CmxRopXf3G86RnJkhXXH-18" edge="1">
          <mxGeometry relative="1" as="geometry">
            <mxPoint x="360" y="720" as="sourcePoint" />
          </mxGeometry>
        </mxCell>
        <mxCell id="iWIDf0FiWBgadMUSRAMe-10" value="2c2o" style="edgeStyle=none;curved=1;rounded=0;orthogonalLoop=1;jettySize=auto;html=1;fontSize=12;startSize=8;endSize=8;" parent="1" source="CmxRopXf3G86RnJkhXXH-18" target="Fb7SYodg1rfcOdGR5ccG-10" edge="1">
          <mxGeometry relative="1" as="geometry">
            <mxPoint x="440" y="780" as="targetPoint" />
          </mxGeometry>
        </mxCell>
        <mxCell id="Fb7SYodg1rfcOdGR5ccG-13" value="3h" style="edgeStyle=none;curved=1;rounded=0;orthogonalLoop=1;jettySize=auto;html=1;fontSize=12;startSize=8;endSize=8;" parent="1" source="CmxRopXf3G86RnJkhXXH-18" target="Fb7SYodg1rfcOdGR5ccG-11" edge="1">
          <mxGeometry relative="1" as="geometry">
            <mxPoint as="offset" />
          </mxGeometry>
        </mxCell>
        <mxCell id="Fb7SYodg1rfcOdGR5ccG-18" value="1h" style="edgeStyle=none;curved=1;rounded=0;orthogonalLoop=1;jettySize=auto;html=1;fontSize=12;startSize=8;endSize=8;" parent="1" source="CmxRopXf3G86RnJkhXXH-18" target="CmxRopXf3G86RnJkhXXH-25" edge="1">
          <mxGeometry x="-0.3857" relative="1" as="geometry">
            <Array as="points">
              <mxPoint x="170" y="520" />
            </Array>
            <mxPoint as="offset" />
          </mxGeometry>
        </mxCell>
        <mxCell id="CmxRopXf3G86RnJkhXXH-18" value="crew" style="shape=step;perimeter=stepPerimeter;whiteSpace=wrap;html=1;fixedSize=1;size=10;" parent="1" vertex="1">
          <mxGeometry x="240" y="760" width="80" height="40" as="geometry" />
        </mxCell>
        <mxCell id="CmxRopXf3G86RnJkhXXH-33" value="10h" style="edgeStyle=none;curved=1;rounded=0;orthogonalLoop=1;jettySize=auto;html=1;fontSize=12;startSize=8;endSize=8;" parent="1" source="CmxRopXf3G86RnJkhXXH-25" target="CmxRopXf3G86RnJkhXXH-32" edge="1">
          <mxGeometry relative="1" as="geometry" />
        </mxCell>
        <mxCell id="CmxRopXf3G86RnJkhXXH-25" value="humidity" style="rounded=1;whiteSpace=wrap;html=1;" parent="1" vertex="1">
          <mxGeometry x="80" y="440" width="80" height="40" as="geometry" />
        </mxCell>
        <mxCell id="CmxRopXf3G86RnJkhXXH-34" value="10h" style="edgeStyle=none;curved=1;rounded=0;orthogonalLoop=1;jettySize=auto;html=1;fontSize=12;startSize=8;endSize=8;" parent="1" source="CmxRopXf3G86RnJkhXXH-32" target="CmxRopXf3G86RnJkhXXH-5" edge="1">
          <mxGeometry relative="1" as="geometry" />
        </mxCell>
        <mxCell id="CmxRopXf3G86RnJkhXXH-32" value="condensator" style="shape=step;perimeter=stepPerimeter;whiteSpace=wrap;html=1;fixedSize=1;size=10;" parent="1" vertex="1">
          <mxGeometry x="80" y="520" width="80" height="40" as="geometry" />
        </mxCell>
        <mxCell id="CmxRopXf3G86RnJkhXXH-38" value="1h" style="edgeStyle=none;curved=1;rounded=0;orthogonalLoop=1;jettySize=auto;html=1;fontSize=12;startSize=8;endSize=8;" parent="1" source="CmxRopXf3G86RnJkhXXH-36" target="CmxRopXf3G86RnJkhXXH-5" edge="1">
          <mxGeometry relative="1" as="geometry" />
        </mxCell>
        <mxCell id="CmxRopXf3G86RnJkhXXH-36" value="reprocessing" style="shape=step;perimeter=stepPerimeter;whiteSpace=wrap;html=1;fixedSize=1;size=10;" parent="1" vertex="1">
          <mxGeometry x="80" y="680" width="80" height="40" as="geometry" />
        </mxCell>
        <mxCell id="CmxRopXf3G86RnJkhXXH-42" value="2c4o" style="edgeStyle=none;curved=1;rounded=0;orthogonalLoop=1;jettySize=auto;html=1;fontSize=12;startSize=8;endSize=8;" parent="1" source="CmxRopXf3G86RnJkhXXH-40" target="CmxRopXf3G86RnJkhXXH-15" edge="1">
          <mxGeometry x="-0.0273" y="5" relative="1" as="geometry">
            <mxPoint as="offset" />
            <Array as="points">
              <mxPoint x="420" y="560" />
            </Array>
          </mxGeometry>
        </mxCell>
        <mxCell id="CmxRopXf3G86RnJkhXXH-47" value="16c32o" style="edgeStyle=none;curved=1;rounded=0;orthogonalLoop=1;jettySize=auto;html=1;fontSize=12;startSize=8;endSize=8;" parent="1" source="CmxRopXf3G86RnJkhXXH-40" target="CmxRopXf3G86RnJkhXXH-46" edge="1">
          <mxGeometry x="0.581" y="-3" relative="1" as="geometry">
            <mxPoint as="offset" />
          </mxGeometry>
        </mxCell>
        <mxCell id="CmxRopXf3G86RnJkhXXH-56" value="32o" style="edgeStyle=none;curved=1;rounded=0;orthogonalLoop=1;jettySize=auto;html=1;fontSize=12;startSize=8;endSize=8;" parent="1" source="CmxRopXf3G86RnJkhXXH-46" target="CmxRopXf3G86RnJkhXXH-7" edge="1">
          <mxGeometry relative="1" as="geometry" />
        </mxCell>
        <mxCell id="CmxRopXf3G86RnJkhXXH-40" value="CO2" style="rounded=1;whiteSpace=wrap;html=1;" parent="1" vertex="1">
          <mxGeometry x="560" y="520" width="80" height="40" as="geometry" />
        </mxCell>
        <mxCell id="CmxRopXf3G86RnJkhXXH-48" value="16c" style="edgeStyle=none;curved=1;rounded=0;orthogonalLoop=1;jettySize=auto;html=1;fontSize=12;startSize=8;endSize=8;" parent="1" source="CmxRopXf3G86RnJkhXXH-46" target="Fb7SYodg1rfcOdGR5ccG-7" edge="1">
          <mxGeometry x="-0.0015" relative="1" as="geometry">
            <mxPoint as="offset" />
          </mxGeometry>
        </mxCell>
        <mxCell id="CmxRopXf3G86RnJkhXXH-46" value="scrubber" style="shape=step;perimeter=stepPerimeter;whiteSpace=wrap;html=1;fixedSize=1;size=10;" parent="1" vertex="1">
          <mxGeometry x="320" y="440" width="80" height="40" as="geometry" />
        </mxCell>
        <mxCell id="CmxRopXf3G86RnJkhXXH-52" value="16c" style="edgeStyle=none;curved=1;rounded=0;orthogonalLoop=1;jettySize=auto;html=1;fontSize=12;startSize=8;endSize=8;" parent="1" source="CmxRopXf3G86RnJkhXXH-49" target="Fb7SYodg1rfcOdGR5ccG-9" edge="1">
          <mxGeometry relative="1" as="geometry">
            <mxPoint x="600" y="520" as="targetPoint" />
          </mxGeometry>
        </mxCell>
        <mxCell id="CmxRopXf3G86RnJkhXXH-49" value="crew" style="shape=step;perimeter=stepPerimeter;whiteSpace=wrap;html=1;fixedSize=1;size=10;" parent="1" vertex="1">
          <mxGeometry x="440" y="360" width="80" height="40" as="geometry" />
        </mxCell>
        <mxCell id="CmxRopXf3G86RnJkhXXH-54" value="16c" style="edgeStyle=none;curved=1;rounded=0;orthogonalLoop=1;jettySize=auto;html=1;fontSize=12;startSize=8;endSize=8;" parent="1" source="Fb7SYodg1rfcOdGR5ccG-9" target="Fb7SYodg1rfcOdGR5ccG-24" edge="1">
          <mxGeometry relative="1" as="geometry">
            <mxPoint x="560" y="540" as="sourcePoint" />
          </mxGeometry>
        </mxCell>
        <mxCell id="CmxRopXf3G86RnJkhXXH-55" value="1c2o" style="edgeStyle=none;curved=1;rounded=0;orthogonalLoop=1;jettySize=auto;html=1;fontSize=12;startSize=8;endSize=8;" parent="1" source="CmxRopXf3G86RnJkhXXH-53" target="CmxRopXf3G86RnJkhXXH-40" edge="1">
          <mxGeometry x="0.5" relative="1" as="geometry">
            <mxPoint as="offset" />
          </mxGeometry>
        </mxCell>
        <mxCell id="CmxRopXf3G86RnJkhXXH-53" value="waste&amp;nbsp;&lt;div&gt;burner&lt;/div&gt;" style="shape=step;perimeter=stepPerimeter;whiteSpace=wrap;html=1;fixedSize=1;size=10;" parent="1" vertex="1">
          <mxGeometry x="440" y="600" width="80" height="40" as="geometry" />
        </mxCell>
        <mxCell id="Fb7SYodg1rfcOdGR5ccG-3" value="1o" style="edgeStyle=none;curved=1;rounded=0;orthogonalLoop=1;jettySize=auto;html=1;fontSize=12;startSize=8;endSize=8;" parent="1" source="Fb7SYodg1rfcOdGR5ccG-1" target="CmxRopXf3G86RnJkhXXH-7" edge="1">
          <mxGeometry relative="1" as="geometry" />
        </mxCell>
        <mxCell id="Fb7SYodg1rfcOdGR5ccG-1" value="Hydrolysis" style="shape=step;perimeter=stepPerimeter;whiteSpace=wrap;html=1;fixedSize=1;size=10;fillColor=#ffe6cc;strokeColor=#d79b00;" parent="1" vertex="1">
          <mxGeometry x="200" y="520" width="80" height="40" as="geometry" />
        </mxCell>
        <mxCell id="Fb7SYodg1rfcOdGR5ccG-6" value="cold coolant" style="rounded=0;whiteSpace=wrap;html=1;dashed=1;dashPattern=8 8;" parent="1" vertex="1">
          <mxGeometry x="-160" y="520" width="80" height="40" as="geometry" />
        </mxCell>
        <mxCell id="Fb7SYodg1rfcOdGR5ccG-8" value="16c" style="edgeStyle=none;curved=1;rounded=0;orthogonalLoop=1;jettySize=auto;html=1;fontSize=12;startSize=8;endSize=8;" parent="1" source="Fb7SYodg1rfcOdGR5ccG-7" target="CmxRopXf3G86RnJkhXXH-49" edge="1">
          <mxGeometry relative="1" as="geometry" />
        </mxCell>
        <mxCell id="Fb7SYodg1rfcOdGR5ccG-7" value="disposables" style="rounded=0;whiteSpace=wrap;html=1;dashed=1;dashPattern=8 8;" parent="1" vertex="1">
          <mxGeometry x="320" y="360" width="80" height="40" as="geometry" />
        </mxCell>
        <mxCell id="Fb7SYodg1rfcOdGR5ccG-9" value="garbage" style="shape=cylinder3;whiteSpace=wrap;html=1;boundedLbl=1;backgroundOutline=1;size=6.206904970366395;fillColor=#dae8fc;strokeColor=#6c8ebf;" parent="1" vertex="1">
          <mxGeometry x="560" y="360" width="80" height="40" as="geometry" />
        </mxCell>
        <mxCell id="Fb7SYodg1rfcOdGR5ccG-12" value="1c1o" style="edgeStyle=none;curved=1;rounded=0;orthogonalLoop=1;jettySize=auto;html=1;fontSize=12;startSize=8;endSize=8;" parent="1" source="Fb7SYodg1rfcOdGR5ccG-10" target="CmxRopXf3G86RnJkhXXH-53" edge="1">
          <mxGeometry relative="1" as="geometry" />
        </mxCell>
        <mxCell id="Fb7SYodg1rfcOdGR5ccG-10" value="solid waste" style="shape=cylinder3;whiteSpace=wrap;html=1;boundedLbl=1;backgroundOutline=1;size=6.206904970366395;" parent="1" vertex="1">
          <mxGeometry x="440" y="760" width="80" height="40" as="geometry" />
        </mxCell>
        <mxCell id="Fb7SYodg1rfcOdGR5ccG-14" value="1h" style="edgeStyle=none;curved=1;rounded=0;orthogonalLoop=1;jettySize=auto;html=1;fontSize=12;startSize=8;endSize=8;" parent="1" source="Fb7SYodg1rfcOdGR5ccG-11" target="CmxRopXf3G86RnJkhXXH-36" edge="1">
          <mxGeometry relative="1" as="geometry">
            <mxPoint as="offset" />
          </mxGeometry>
        </mxCell>
        <mxCell id="Fb7SYodg1rfcOdGR5ccG-11" value="fluid waste" style="shape=cylinder3;whiteSpace=wrap;html=1;boundedLbl=1;backgroundOutline=1;size=6.206904970366395;" parent="1" vertex="1">
          <mxGeometry x="80" y="760" width="80" height="40" as="geometry" />
        </mxCell>
        <mxCell id="Fb7SYodg1rfcOdGR5ccG-15" value="food" style="shape=cylinder3;whiteSpace=wrap;html=1;boundedLbl=1;backgroundOutline=1;size=6.206904970366395;" parent="1" vertex="1">
          <mxGeometry x="320" y="680" width="80" height="40" as="geometry" />
        </mxCell>
        <mxCell id="Fb7SYodg1rfcOdGR5ccG-25" value="16c32o" style="edgeStyle=none;curved=1;rounded=0;orthogonalLoop=1;jettySize=auto;html=1;fontSize=12;startSize=8;endSize=8;" parent="1" source="Fb7SYodg1rfcOdGR5ccG-24" target="CmxRopXf3G86RnJkhXXH-40" edge="1">
          <mxGeometry relative="1" as="geometry" />
        </mxCell>
        <mxCell id="Fb7SYodg1rfcOdGR5ccG-24" value="garbage burner" style="shape=step;perimeter=stepPerimeter;whiteSpace=wrap;html=1;fixedSize=1;size=10;" parent="1" vertex="1">
          <mxGeometry x="560" y="440" width="80" height="40" as="geometry" />
        </mxCell>
        <mxCell id="Fb7SYodg1rfcOdGR5ccG-31" value="hot coolant" style="rounded=0;whiteSpace=wrap;html=1;dashed=1;dashPattern=8 8;" parent="1" vertex="1">
          <mxGeometry x="-160" y="440" width="80" height="40" as="geometry" />
        </mxCell>
        <mxCell id="NFJdm7FSt5vxYAGAJaDp-1" value="2h" style="edgeStyle=none;curved=1;rounded=0;orthogonalLoop=1;jettySize=auto;html=1;fontSize=12;startSize=8;endSize=8;" parent="1" source="NFJdm7FSt5vxYAGAJaDp-2" target="NFJdm7FSt5vxYAGAJaDp-9" edge="1">
          <mxGeometry relative="1" as="geometry" />
        </mxCell>
        <mxCell id="NFJdm7FSt5vxYAGAJaDp-2" value="water" style="shape=cylinder3;whiteSpace=wrap;html=1;boundedLbl=1;backgroundOutline=1;size=6.206904970366395;" parent="1" vertex="1">
          <mxGeometry x="800" y="440" width="80" height="40" as="geometry" />
        </mxCell>
        <mxCell id="NFJdm7FSt5vxYAGAJaDp-3" value="2o" style="edgeStyle=none;curved=1;rounded=0;orthogonalLoop=1;jettySize=auto;html=1;fontSize=12;startSize=8;endSize=8;" parent="1" source="NFJdm7FSt5vxYAGAJaDp-4" target="NFJdm7FSt5vxYAGAJaDp-9" edge="1">
          <mxGeometry relative="1" as="geometry" />
        </mxCell>
        <mxCell id="NFJdm7FSt5vxYAGAJaDp-4" value="oxygen" style="rounded=1;whiteSpace=wrap;html=1;" parent="1" vertex="1">
          <mxGeometry x="800" y="360" width="80" height="40" as="geometry" />
        </mxCell>
        <mxCell id="NFJdm7FSt5vxYAGAJaDp-5" value="2c2h" style="edgeStyle=none;curved=1;rounded=0;orthogonalLoop=1;jettySize=auto;html=1;fontSize=12;startSize=8;endSize=8;" parent="1" source="NFJdm7FSt5vxYAGAJaDp-13" target="NFJdm7FSt5vxYAGAJaDp-9" edge="1">
          <mxGeometry relative="1" as="geometry">
            <mxPoint x="1080" y="480" as="sourcePoint" />
          </mxGeometry>
        </mxCell>
        <mxCell id="NFJdm7FSt5vxYAGAJaDp-6" value="2c2o" style="edgeStyle=none;curved=1;rounded=0;orthogonalLoop=1;jettySize=auto;html=1;fontSize=12;startSize=8;endSize=8;" parent="1" source="NFJdm7FSt5vxYAGAJaDp-9" target="NFJdm7FSt5vxYAGAJaDp-11" edge="1">
          <mxGeometry relative="1" as="geometry">
            <mxPoint x="1160" y="540" as="targetPoint" />
          </mxGeometry>
        </mxCell>
        <mxCell id="NFJdm7FSt5vxYAGAJaDp-7" value="3h" style="edgeStyle=none;curved=1;rounded=0;orthogonalLoop=1;jettySize=auto;html=1;fontSize=12;startSize=8;endSize=8;" parent="1" source="NFJdm7FSt5vxYAGAJaDp-9" target="NFJdm7FSt5vxYAGAJaDp-12" edge="1">
          <mxGeometry relative="1" as="geometry">
            <mxPoint as="offset" />
          </mxGeometry>
        </mxCell>
        <mxCell id="NFJdm7FSt5vxYAGAJaDp-8" value="1h" style="edgeStyle=none;curved=1;rounded=0;orthogonalLoop=1;jettySize=auto;html=1;fontSize=12;startSize=8;endSize=8;" parent="1" source="NFJdm7FSt5vxYAGAJaDp-9" target="NFJdm7FSt5vxYAGAJaDp-10" edge="1">
          <mxGeometry x="-0.3857" relative="1" as="geometry">
            <Array as="points" />
            <mxPoint as="offset" />
          </mxGeometry>
        </mxCell>
        <mxCell id="NFJdm7FSt5vxYAGAJaDp-9" value="crew" style="shape=step;perimeter=stepPerimeter;whiteSpace=wrap;html=1;fixedSize=1;size=10;" parent="1" vertex="1">
          <mxGeometry x="960" y="449" width="80" height="40" as="geometry" />
        </mxCell>
        <mxCell id="NFJdm7FSt5vxYAGAJaDp-10" value="humidity" style="rounded=1;whiteSpace=wrap;html=1;" parent="1" vertex="1">
          <mxGeometry x="1120" y="360" width="80" height="40" as="geometry" />
        </mxCell>
        <mxCell id="NFJdm7FSt5vxYAGAJaDp-11" value="solid waste" style="shape=cylinder3;whiteSpace=wrap;html=1;boundedLbl=1;backgroundOutline=1;size=6.206904970366395;" parent="1" vertex="1">
          <mxGeometry x="1120" y="440" width="80" height="40" as="geometry" />
        </mxCell>
        <mxCell id="NFJdm7FSt5vxYAGAJaDp-12" value="fluid waste" style="shape=cylinder3;whiteSpace=wrap;html=1;boundedLbl=1;backgroundOutline=1;size=6.206904970366395;" parent="1" vertex="1">
          <mxGeometry x="1120" y="520" width="80" height="40" as="geometry" />
        </mxCell>
        <mxCell id="NFJdm7FSt5vxYAGAJaDp-13" value="food" style="shape=cylinder3;whiteSpace=wrap;html=1;boundedLbl=1;backgroundOutline=1;size=6.206904970366395;" parent="1" vertex="1">
          <mxGeometry x="800" y="520" width="80" height="40" as="geometry" />
        </mxCell>
        <mxCell id="NFJdm7FSt5vxYAGAJaDp-14" value="2h" style="edgeStyle=none;curved=1;rounded=0;orthogonalLoop=1;jettySize=auto;html=1;fontSize=12;startSize=8;endSize=8;" parent="1" source="NFJdm7FSt5vxYAGAJaDp-15" target="NFJdm7FSt5vxYAGAJaDp-22" edge="1">
          <mxGeometry relative="1" as="geometry" />
        </mxCell>
        <mxCell id="NFJdm7FSt5vxYAGAJaDp-15" value="water" style="shape=cylinder3;whiteSpace=wrap;html=1;boundedLbl=1;backgroundOutline=1;size=6.206904970366395;" parent="1" vertex="1">
          <mxGeometry x="800" y="680" width="80" height="40" as="geometry" />
        </mxCell>
        <mxCell id="NFJdm7FSt5vxYAGAJaDp-16" value="4o" style="edgeStyle=none;curved=1;rounded=0;orthogonalLoop=1;jettySize=auto;html=1;fontSize=12;startSize=8;endSize=8;labelBackgroundColor=#FFE599;" parent="1" source="NFJdm7FSt5vxYAGAJaDp-17" target="NFJdm7FSt5vxYAGAJaDp-22" edge="1">
          <mxGeometry relative="1" as="geometry" />
        </mxCell>
        <mxCell id="NFJdm7FSt5vxYAGAJaDp-17" value="oxygen" style="rounded=1;whiteSpace=wrap;html=1;" parent="1" vertex="1">
          <mxGeometry x="800" y="600" width="80" height="40" as="geometry" />
        </mxCell>
        <mxCell id="NFJdm7FSt5vxYAGAJaDp-18" value="4c4h" style="edgeStyle=none;curved=1;rounded=0;orthogonalLoop=1;jettySize=auto;html=1;fontSize=12;startSize=8;endSize=8;labelBackgroundColor=#FFE599;" parent="1" source="NFJdm7FSt5vxYAGAJaDp-26" target="NFJdm7FSt5vxYAGAJaDp-22" edge="1">
          <mxGeometry relative="1" as="geometry">
            <mxPoint x="1080" y="720" as="sourcePoint" />
          </mxGeometry>
        </mxCell>
        <mxCell id="NFJdm7FSt5vxYAGAJaDp-19" value="4c4o" style="edgeStyle=none;curved=1;rounded=0;orthogonalLoop=1;jettySize=auto;html=1;fontSize=12;startSize=8;endSize=8;labelBackgroundColor=#FFE599;" parent="1" source="NFJdm7FSt5vxYAGAJaDp-22" target="NFJdm7FSt5vxYAGAJaDp-24" edge="1">
          <mxGeometry relative="1" as="geometry">
            <mxPoint x="1160" y="780" as="targetPoint" />
          </mxGeometry>
        </mxCell>
        <mxCell id="NFJdm7FSt5vxYAGAJaDp-20" value="5h" style="edgeStyle=none;curved=1;rounded=0;orthogonalLoop=1;jettySize=auto;html=1;fontSize=12;startSize=8;endSize=8;labelBackgroundColor=#FFE599;" parent="1" source="NFJdm7FSt5vxYAGAJaDp-22" target="NFJdm7FSt5vxYAGAJaDp-25" edge="1">
          <mxGeometry relative="1" as="geometry">
            <mxPoint as="offset" />
          </mxGeometry>
        </mxCell>
        <mxCell id="NFJdm7FSt5vxYAGAJaDp-21" value="1h" style="edgeStyle=none;curved=1;rounded=0;orthogonalLoop=1;jettySize=auto;html=1;fontSize=12;startSize=8;endSize=8;" parent="1" source="NFJdm7FSt5vxYAGAJaDp-22" target="NFJdm7FSt5vxYAGAJaDp-23" edge="1">
          <mxGeometry x="-0.3857" relative="1" as="geometry">
            <Array as="points" />
            <mxPoint as="offset" />
          </mxGeometry>
        </mxCell>
        <mxCell id="NFJdm7FSt5vxYAGAJaDp-22" value="crew" style="shape=step;perimeter=stepPerimeter;whiteSpace=wrap;html=1;fixedSize=1;size=10;" parent="1" vertex="1">
          <mxGeometry x="960" y="689" width="80" height="40" as="geometry" />
        </mxCell>
        <mxCell id="NFJdm7FSt5vxYAGAJaDp-23" value="humidity" style="rounded=1;whiteSpace=wrap;html=1;" parent="1" vertex="1">
          <mxGeometry x="1120" y="600" width="80" height="40" as="geometry" />
        </mxCell>
        <mxCell id="NFJdm7FSt5vxYAGAJaDp-24" value="solid waste" style="shape=cylinder3;whiteSpace=wrap;html=1;boundedLbl=1;backgroundOutline=1;size=6.206904970366395;" parent="1" vertex="1">
          <mxGeometry x="1120" y="680" width="80" height="40" as="geometry" />
        </mxCell>
        <mxCell id="NFJdm7FSt5vxYAGAJaDp-25" value="fluid waste" style="shape=cylinder3;whiteSpace=wrap;html=1;boundedLbl=1;backgroundOutline=1;size=6.206904970366395;" parent="1" vertex="1">
          <mxGeometry x="1120" y="760" width="80" height="40" as="geometry" />
        </mxCell>
        <mxCell id="NFJdm7FSt5vxYAGAJaDp-26" value="food" style="shape=cylinder3;whiteSpace=wrap;html=1;boundedLbl=1;backgroundOutline=1;size=6.206904970366395;" parent="1" vertex="1">
          <mxGeometry x="800" y="760" width="80" height="40" as="geometry" />
        </mxCell>
        <mxCell id="NFJdm7FSt5vxYAGAJaDp-27" value="with pizza" style="text;html=1;align=center;verticalAlign=middle;resizable=0;points=[];autosize=1;strokeColor=none;fillColor=none;" parent="1" vertex="1">
          <mxGeometry x="960" y="640" width="80" height="30" as="geometry" />
        </mxCell>
        <mxCell id="NFJdm7FSt5vxYAGAJaDp-88" value="" style="edgeStyle=none;curved=1;rounded=0;orthogonalLoop=1;jettySize=auto;html=1;fontSize=12;startSize=8;endSize=8;strokeWidth=3;endArrow=none;endFill=0;" parent="1" source="NFJdm7FSt5vxYAGAJaDp-91" target="NFJdm7FSt5vxYAGAJaDp-95" edge="1">
          <mxGeometry relative="1" as="geometry" />
        </mxCell>
        <mxCell id="NFJdm7FSt5vxYAGAJaDp-89" value="" style="edgeStyle=none;curved=1;rounded=0;orthogonalLoop=1;jettySize=auto;html=1;fontSize=12;startSize=8;endSize=8;strokeWidth=3;endArrow=none;endFill=0;" parent="1" source="NFJdm7FSt5vxYAGAJaDp-91" target="NFJdm7FSt5vxYAGAJaDp-97" edge="1">
          <mxGeometry relative="1" as="geometry" />
        </mxCell>
        <mxCell id="NFJdm7FSt5vxYAGAJaDp-90" value="" style="edgeStyle=none;curved=1;rounded=0;orthogonalLoop=1;jettySize=auto;html=1;fontSize=12;startSize=8;endSize=8;strokeWidth=3;endArrow=none;endFill=0;" parent="1" source="NFJdm7FSt5vxYAGAJaDp-91" target="NFJdm7FSt5vxYAGAJaDp-103" edge="1">
          <mxGeometry relative="1" as="geometry" />
        </mxCell>
        <mxCell id="NFJdm7FSt5vxYAGAJaDp-91" value="water" style="shape=cylinder3;whiteSpace=wrap;html=1;boundedLbl=1;backgroundOutline=1;size=6.206904970366395;" parent="1" vertex="1">
          <mxGeometry x="-540" y="520" width="80" height="40" as="geometry" />
        </mxCell>
        <mxCell id="NFJdm7FSt5vxYAGAJaDp-92" value="" style="edgeStyle=none;curved=1;rounded=0;orthogonalLoop=1;jettySize=auto;html=1;fontSize=12;startSize=8;endSize=8;strokeWidth=3;endArrow=none;endFill=0;" parent="1" source="NFJdm7FSt5vxYAGAJaDp-93" target="NFJdm7FSt5vxYAGAJaDp-95" edge="1">
          <mxGeometry relative="1" as="geometry">
            <mxPoint x="-560" y="460" as="targetPoint" />
          </mxGeometry>
        </mxCell>
        <mxCell id="NFJdm7FSt5vxYAGAJaDp-93" value="engine" style="shape=step;perimeter=stepPerimeter;whiteSpace=wrap;html=1;fixedSize=1;size=10;" parent="1" vertex="1">
          <mxGeometry x="-680" y="440" width="80" height="40" as="geometry" />
        </mxCell>
        <mxCell id="NFJdm7FSt5vxYAGAJaDp-94" style="edgeStyle=orthogonalEdgeStyle;rounded=0;orthogonalLoop=1;jettySize=auto;html=1;strokeWidth=3;endArrow=none;endFill=0;" parent="1" source="NFJdm7FSt5vxYAGAJaDp-95" target="NFJdm7FSt5vxYAGAJaDp-93" edge="1">
          <mxGeometry relative="1" as="geometry">
            <Array as="points">
              <mxPoint x="-620" y="500" />
              <mxPoint x="-620" y="500" />
            </Array>
          </mxGeometry>
        </mxCell>
        <mxCell id="NFJdm7FSt5vxYAGAJaDp-95" value="cooler" style="shape=step;perimeter=stepPerimeter;whiteSpace=wrap;html=1;fixedSize=1;size=10;" parent="1" vertex="1">
          <mxGeometry x="-680" y="520" width="80" height="40" as="geometry" />
        </mxCell>
        <mxCell id="NFJdm7FSt5vxYAGAJaDp-96" value="" style="edgeStyle=none;curved=1;rounded=0;orthogonalLoop=1;jettySize=auto;html=1;fontSize=12;startSize=8;endSize=8;strokeWidth=3;endArrow=none;endFill=0;" parent="1" source="NFJdm7FSt5vxYAGAJaDp-97" target="NFJdm7FSt5vxYAGAJaDp-108" edge="1">
          <mxGeometry relative="1" as="geometry">
            <mxPoint x="-286.6666666666665" y="600" as="sourcePoint" />
            <mxPoint x="-360" y="600" as="targetPoint" />
          </mxGeometry>
        </mxCell>
        <mxCell id="NFJdm7FSt5vxYAGAJaDp-97" value="plants" style="shape=step;perimeter=stepPerimeter;whiteSpace=wrap;html=1;fixedSize=1;size=10;" parent="1" vertex="1">
          <mxGeometry x="-400" y="520" width="80" height="40" as="geometry" />
        </mxCell>
        <mxCell id="NFJdm7FSt5vxYAGAJaDp-98" value="" style="edgeStyle=none;curved=1;rounded=0;orthogonalLoop=1;jettySize=auto;html=1;fontSize=12;startSize=8;endSize=8;strokeWidth=3;endArrow=none;endFill=0;" parent="1" source="NFJdm7FSt5vxYAGAJaDp-99" target="NFJdm7FSt5vxYAGAJaDp-91" edge="1">
          <mxGeometry relative="1" as="geometry" />
        </mxCell>
        <mxCell id="NFJdm7FSt5vxYAGAJaDp-99" value="condensator" style="shape=step;perimeter=stepPerimeter;whiteSpace=wrap;html=1;fixedSize=1;size=10;" parent="1" vertex="1">
          <mxGeometry x="-540" y="440" width="80" height="40" as="geometry" />
        </mxCell>
        <mxCell id="NFJdm7FSt5vxYAGAJaDp-100" value="" style="edgeStyle=none;curved=1;rounded=0;orthogonalLoop=1;jettySize=auto;html=1;fontSize=12;startSize=8;endSize=8;strokeWidth=3;endArrow=none;endFill=0;" parent="1" source="NFJdm7FSt5vxYAGAJaDp-101" target="NFJdm7FSt5vxYAGAJaDp-91" edge="1">
          <mxGeometry relative="1" as="geometry" />
        </mxCell>
        <mxCell id="NFJdm7FSt5vxYAGAJaDp-101" value="reprocessing" style="shape=step;perimeter=stepPerimeter;whiteSpace=wrap;html=1;fixedSize=1;size=10;" parent="1" vertex="1">
          <mxGeometry x="-540" y="600" width="80" height="40" as="geometry" />
        </mxCell>
        <mxCell id="NFJdm7FSt5vxYAGAJaDp-102" value="waste&amp;nbsp;&lt;div&gt;burner&lt;/div&gt;" style="shape=step;perimeter=stepPerimeter;whiteSpace=wrap;html=1;fixedSize=1;size=10;" parent="1" vertex="1">
          <mxGeometry x="-400" y="680" width="80" height="40" as="geometry" />
        </mxCell>
        <mxCell id="NFJdm7FSt5vxYAGAJaDp-103" value="Hydrolysis" style="shape=step;perimeter=stepPerimeter;whiteSpace=wrap;html=1;fixedSize=1;size=10;fillColor=#ffe6cc;strokeColor=#d79b00;" parent="1" vertex="1">
          <mxGeometry x="-400" y="440" width="80" height="40" as="geometry" />
        </mxCell>
        <mxCell id="NFJdm7FSt5vxYAGAJaDp-104" value="" style="edgeStyle=none;curved=1;rounded=0;orthogonalLoop=1;jettySize=auto;html=1;fontSize=12;startSize=8;endSize=8;strokeWidth=3;endArrow=none;endFill=0;" parent="1" source="NFJdm7FSt5vxYAGAJaDp-105" target="NFJdm7FSt5vxYAGAJaDp-102" edge="1">
          <mxGeometry relative="1" as="geometry" />
        </mxCell>
        <mxCell id="NFJdm7FSt5vxYAGAJaDp-105" value="solid waste" style="shape=cylinder3;whiteSpace=wrap;html=1;boundedLbl=1;backgroundOutline=1;size=6.206904970366395;" parent="1" vertex="1">
          <mxGeometry x="-540" y="710" width="80" height="40" as="geometry" />
        </mxCell>
        <mxCell id="NFJdm7FSt5vxYAGAJaDp-106" value="" style="edgeStyle=none;curved=1;rounded=0;orthogonalLoop=1;jettySize=auto;html=1;fontSize=12;startSize=8;endSize=8;strokeWidth=3;endArrow=none;endFill=0;" parent="1" source="NFJdm7FSt5vxYAGAJaDp-107" target="NFJdm7FSt5vxYAGAJaDp-101" edge="1">
          <mxGeometry relative="1" as="geometry">
            <mxPoint as="offset" />
          </mxGeometry>
        </mxCell>
        <mxCell id="NFJdm7FSt5vxYAGAJaDp-107" value="fluid waste" style="shape=cylinder3;whiteSpace=wrap;html=1;boundedLbl=1;backgroundOutline=1;size=6.206904970366395;" parent="1" vertex="1">
          <mxGeometry x="-540" y="680" width="80" height="40" as="geometry" />
        </mxCell>
        <mxCell id="NFJdm7FSt5vxYAGAJaDp-108" value="food" style="shape=cylinder3;whiteSpace=wrap;html=1;boundedLbl=1;backgroundOutline=1;size=6.206904970366395;" parent="1" vertex="1">
          <mxGeometry x="-400" y="600" width="80" height="40" as="geometry" />
        </mxCell>
        <mxCell id="hpE08s2k57fklYI9OJh8-1" value="" style="edgeStyle=none;curved=1;rounded=0;orthogonalLoop=1;jettySize=auto;html=1;fontSize=12;startSize=8;endSize=8;strokeWidth=3;endArrow=none;endFill=0;dashed=1;dashPattern=1 2;" parent="1" source="NFJdm7FSt5vxYAGAJaDp-99" target="NFJdm7FSt5vxYAGAJaDp-95" edge="1">
          <mxGeometry relative="1" as="geometry" />
        </mxCell>
        <mxCell id="hpE08s2k57fklYI9OJh8-2" value="" style="edgeStyle=none;curved=1;rounded=0;orthogonalLoop=1;jettySize=auto;html=1;fontSize=12;startSize=8;endSize=8;strokeWidth=3;endArrow=none;endFill=0;dashed=1;dashPattern=1 2;" parent="1" source="NFJdm7FSt5vxYAGAJaDp-99" target="NFJdm7FSt5vxYAGAJaDp-103" edge="1">
          <mxGeometry relative="1" as="geometry" />
        </mxCell>
        <mxCell id="hpE08s2k57fklYI9OJh8-3" value="" style="edgeStyle=none;curved=1;rounded=0;orthogonalLoop=1;jettySize=auto;html=1;fontSize=12;startSize=8;endSize=8;strokeWidth=3;endArrow=none;endFill=0;dashed=1;dashPattern=1 2;" parent="1" source="NFJdm7FSt5vxYAGAJaDp-99" target="NFJdm7FSt5vxYAGAJaDp-97" edge="1">
          <mxGeometry relative="1" as="geometry" />
        </mxCell>
        <mxCell id="hpE08s2k57fklYI9OJh8-4" value="" style="edgeStyle=none;curved=1;rounded=0;orthogonalLoop=1;jettySize=auto;html=1;fontSize=12;startSize=8;endSize=8;strokeWidth=3;endArrow=none;endFill=0;dashed=1;dashPattern=1 2;" parent="1" source="NFJdm7FSt5vxYAGAJaDp-101" target="NFJdm7FSt5vxYAGAJaDp-97" edge="1">
          <mxGeometry relative="1" as="geometry" />
        </mxCell>
        <mxCell id="hpE08s2k57fklYI9OJh8-5" value="" style="edgeStyle=none;curved=1;rounded=0;orthogonalLoop=1;jettySize=auto;html=1;fontSize=12;startSize=8;endSize=8;strokeWidth=3;endArrow=none;endFill=0;dashed=1;dashPattern=1 2;" parent="1" source="NFJdm7FSt5vxYAGAJaDp-101" target="NFJdm7FSt5vxYAGAJaDp-103" edge="1">
          <mxGeometry relative="1" as="geometry" />
        </mxCell>
        <mxCell id="hpE08s2k57fklYI9OJh8-6" value="" style="edgeStyle=none;curved=1;rounded=0;orthogonalLoop=1;jettySize=auto;html=1;fontSize=12;startSize=8;endSize=8;strokeWidth=3;endArrow=none;endFill=0;dashed=1;dashPattern=1 2;" parent="1" source="NFJdm7FSt5vxYAGAJaDp-101" target="NFJdm7FSt5vxYAGAJaDp-95" edge="1">
          <mxGeometry relative="1" as="geometry" />
        </mxCell>
      </root>
    </mxGraphModel>
  </diagram>
</mxfile>
